<svg data-v-423bf9ae="" xmlns="http://www.w3.org/2000/svg" viewBox="0 0 70.38710049891523 60" class="font"><!----><!----><!----><g data-v-423bf9ae="" id="06c3ec30-7d67-41c4-b67e-122476b553ad" fill="white" transform="matrix(6.4516127709088735,0,0,6.4516127709088735,0.645162003926977,-23.677418884617403)"><path d="M10.21 12.97L10.21 12.97L7.20 12.97Q7.24 11.29 7.24 9.55Q7.24 7.81 7.07 5.59L7.07 5.59Q7.30 5.11 7.72 4.12L7.72 4.12Q7.77 4.01 7.96 3.84Q8.16 3.67 8.31 3.67L8.31 3.67L10.40 3.67Q10.36 4.57 10.36 5.67L10.36 5.67Q10.36 9.12 10.81 12.52L10.81 12.52Q10.81 12.61 10.60 12.79Q10.38 12.97 10.21 12.97ZM5.52 12.62L5.52 12.62Q5.48 12.72 5.31 12.85Q5.15 12.97 5.05 12.97L5.05 12.97L3.96 12.97Q3.68 11.27 3.22 9.39Q2.76 7.51 2.31 6.30L2.31 6.30Q2.34 6.14 2.49 5.34Q2.65 4.53 2.71 4.12L2.71 4.12Q2.73 4.02 2.94 3.85Q3.15 3.67 3.30 3.67L3.30 3.67L5.29 3.67Q5.76 6.41 6.07 7.37Q6.38 8.33 6.64 8.90L6.64 8.90Q5.99 10.86 5.52 12.62ZM2.16 8.03L2.16 8.03Q2.19 9.74 2.29 10.64Q2.38 11.55 2.69 12.52L2.69 12.52Q2.69 12.61 2.46 12.79Q2.24 12.97 2.08 12.97L2.08 12.97L-0.10 12.97Q0.57 11.36 0.96 10.36Q1.34 9.36 1.57 8.48L1.57 8.48Q1.57 8.39 1.78 8.21Q2.00 8.03 2.16 8.03Z"></path></g><!----><!----></svg>